<svg width="49" height="38" viewBox="0 0 49 38" fill="none" xmlns="http://www.w3.org/2000/svg">
<path d="M23.8504 9.8582L8.16731 22.7398V36.6427C8.16731 37.0027 8.3107 37.3479 8.56594 37.6025C8.82118 37.857 9.16736 38 9.52832 38L19.0605 37.9754C19.4202 37.9736 19.7647 37.8298 20.0184 37.5755C20.2722 37.3211 20.4147 36.9769 20.4147 36.6181V28.4989C20.4147 28.139 20.5581 27.7937 20.8133 27.5392C21.0685 27.2846 21.4147 27.1416 21.7757 27.1416H27.2197C27.5807 27.1416 27.9268 27.2846 28.1821 27.5392C28.4373 27.7937 28.5807 28.139 28.5807 28.4989V36.6122C28.5801 36.7908 28.6149 36.9677 28.6831 37.1329C28.7512 37.298 28.8514 37.4482 28.9778 37.5747C29.1043 37.7011 29.2545 37.8015 29.4199 37.87C29.5853 37.9385 29.7626 37.9737 29.9417 37.9737L39.4705 38C39.8314 38 40.1776 37.857 40.4328 37.6025C40.6881 37.3479 40.8315 37.0027 40.8315 36.6427V22.7304L25.1518 9.8582C24.9675 9.71002 24.7379 9.62922 24.5011 9.62922C24.2643 9.62922 24.0347 9.71002 23.8504 9.8582ZM48.6232 18.6136L41.512 12.7679V1.01797C41.512 0.747988 41.4044 0.489063 41.213 0.298157C41.0216 0.10725 40.7619 0 40.4912 0H35.7277C35.457 0 35.1973 0.10725 35.0059 0.298157C34.8145 0.489063 34.7069 0.747988 34.7069 1.01797V7.17754L27.0913 0.928898C26.3604 0.329126 25.4433 0.00119895 24.4968 0.00119895C23.5504 0.00119895 22.6333 0.329126 21.9024 0.928898L0.370448 18.6136C0.267086 18.6988 0.18157 18.8035 0.118787 18.9216C0.0560036 19.0398 0.0171834 19.1692 0.00454419 19.3023C-0.00809497 19.4354 0.00569467 19.5697 0.0451252 19.6976C0.0845557 19.8254 0.148854 19.9442 0.234347 20.0472L2.40345 22.677C2.48871 22.7804 2.59358 22.866 2.71206 22.9289C2.83053 22.9918 2.96029 23.0308 3.0939 23.0437C3.22751 23.0565 3.36234 23.0429 3.49069 23.0038C3.61904 22.9646 3.73837 22.9005 3.84186 22.8153L23.8504 6.38013C24.0347 6.23195 24.2643 6.15115 24.5011 6.15115C24.7379 6.15115 24.9675 6.23195 25.1518 6.38013L45.1612 22.8153C45.2645 22.9005 45.3836 22.9647 45.5118 23.004C45.64 23.0433 45.7746 23.0571 45.9081 23.0444C46.0416 23.0318 46.1714 22.9931 46.2898 22.9305C46.4083 22.8679 46.5133 22.7826 46.5987 22.6795L48.7678 20.0498C48.8532 19.9462 48.9173 19.8267 48.9562 19.6983C48.9952 19.57 49.0083 19.4352 48.9949 19.3017C48.9815 19.1682 48.9417 19.0388 48.8779 18.9207C48.8141 18.8026 48.7276 18.6982 48.6232 18.6136Z" fill="#FFC32D"/>
</svg>
