<svg width="42" height="36" viewBox="0 0 42 36" fill="none" xmlns="http://www.w3.org/2000/svg">
<path d="M41.2314 14.6756L37.5195 11.0395C37.0273 10.5573 36.3595 10.2865 35.6631 10.2865H31.5V3.85714C31.5 1.72687 29.7371 0 27.5625 0H14.4375C12.2629 0 10.5 1.72687 10.5 3.85714V10.2857H6.33691C5.64047 10.2857 4.97355 10.5565 4.48055 11.0387L0.768633 14.6756C0.276445 15.1578 0 15.8119 0 16.4941V23.1429H10.5V21.8571C10.5 21.1468 11.0873 20.5714 11.8125 20.5714H14.4375C15.1627 20.5714 15.75 21.1468 15.75 21.8571V23.1429H26.25V21.8571C26.25 21.1468 26.8373 20.5714 27.5625 20.5714H30.1875C30.9127 20.5714 31.5 21.1468 31.5 21.8571V23.1429H42V16.4933C42 15.8119 41.7236 15.1578 41.2314 14.6756ZM26.25 10.2857H15.75V5.14286H26.25V10.2857ZM31.5 27C31.5 27.7104 30.9127 28.2857 30.1875 28.2857H27.5625C26.8373 28.2857 26.25 27.7104 26.25 27V25.7143H15.75V27C15.75 27.7104 15.1627 28.2857 14.4375 28.2857H11.8125C11.0873 28.2857 10.5 27.7104 10.5 27V25.7143H0V33.4286C0 34.8485 1.17551 36 2.625 36H39.375C40.8245 36 42 34.8485 42 33.4286V25.7143H31.5V27Z" fill="#FFC32D"/>
</svg>
