<svg width="29" height="33" viewBox="0 0 29 33" fill="none" xmlns="http://www.w3.org/2000/svg">
<path d="M14.5 33C16.7863 33 18.6409 31.1534 18.6409 28.875H10.3591C10.3591 31.1534 12.2137 33 14.5 33ZM28.4426 23.3507C27.192 22.0127 24.8519 19.9998 24.8519 13.4062C24.8519 8.39824 21.3253 4.38926 16.5701 3.4057V2.0625C16.5701 0.923613 15.6432 0 14.5 0C13.3568 0 12.4299 0.923613 12.4299 2.0625V3.4057C7.67466 4.38926 4.14807 8.39824 4.14807 13.4062C4.14807 19.9998 1.80801 22.0127 0.557387 23.3507C0.168995 23.7664 -0.00319184 24.2634 4.47549e-05 24.75C0.00716527 25.807 0.840265 26.8125 2.07794 26.8125H26.9221C28.1597 26.8125 28.9935 25.807 29 24.75C29.0032 24.2634 28.831 23.7658 28.4426 23.3507Z" fill="#FFC32D"/>
</svg>
