<svg width="273" height="413" viewBox="0 0 273 413" fill="none" xmlns="http://www.w3.org/2000/svg">
<path d="M244.345 85.2891H30.6895V355.119H244.345V85.2891Z" fill="white"/>
<path d="M237.788 69.5276C165.628 69.5276 35.7656 69.5276 35.7656 69.5276C101.576 2.21556 173.521 3.93827 237.788 69.5276Z" fill="white"/>
<path d="M30.6924 355.12H244.348" stroke="white" stroke-width="4" stroke-linecap="round" stroke-linejoin="round"/>
<path d="M244.343 355.12V85.2896" stroke="white" stroke-width="4" stroke-linecap="round" stroke-linejoin="round"/>
<path d="M257.905 355.12V85.2896" stroke="white" stroke-width="4" stroke-linecap="round" stroke-linejoin="round"/>
<path d="M30.6924 355.12V85.2896" stroke="white" stroke-width="4" stroke-linecap="round" stroke-linejoin="round"/>
<path d="M17.1064 355.12V85.2896" stroke="white" stroke-width="4" stroke-linecap="round" stroke-linejoin="round"/>
<path d="M35.7656 69.5264C35.7656 69.5264 165.63 69.5264 237.788 69.5264" stroke="white" stroke-width="4" stroke-linecap="round" stroke-linejoin="round"/>
<path d="M2.31445 85.2895C68.892 -23.2475 199.965 -25.6379 270.662 84.8934C270.756 85.024 270.836 85.1604 270.922 85.2895" stroke="white" stroke-width="4" stroke-linecap="round" stroke-linejoin="round"/>
<path d="M35.7656 69.5281C101.578 2.21605 173.521 3.93876 237.788 69.5281" stroke="white" stroke-width="4" stroke-linecap="round" stroke-linejoin="round"/>
<path d="M17.1067 85.2896H2.31445" stroke="white" stroke-width="4" stroke-linecap="round" stroke-linejoin="round"/>
<path d="M244.348 85.2896H30.6924" stroke="white" stroke-width="4" stroke-linecap="round" stroke-linejoin="round"/>
<path d="M270.049 85.2896H257.905" stroke="white" stroke-width="4" stroke-linecap="round" stroke-linejoin="round"/>
<path d="M17.1067 392.918H2.31445V355.12" stroke="white" stroke-width="4" stroke-linecap="round" stroke-linejoin="round"/>
<path d="M2.31445 355.12H17.1067" stroke="white" stroke-width="4" stroke-linecap="round" stroke-linejoin="round"/>
<path d="M270.049 392.918V355.12" stroke="white" stroke-width="4" stroke-linecap="round" stroke-linejoin="round"/>
<path d="M270.049 355.12H257.905" stroke="white" stroke-width="4" stroke-linecap="round" stroke-linejoin="round"/>
<path d="M17.1064 392.916V410.027" stroke="white" stroke-width="4" stroke-linecap="round" stroke-linejoin="round"/>
<path d="M17.1064 410.029H53.1099" stroke="white" stroke-width="4" stroke-linecap="round" stroke-linejoin="round"/>
<path d="M53.1113 410.027V392.916" stroke="white" stroke-width="4" stroke-linecap="round" stroke-linejoin="round"/>
<path d="M221.903 392.916V410.027" stroke="white" stroke-width="4" stroke-linecap="round" stroke-linejoin="round"/>
<path d="M221.903 410.029H257.905" stroke="white" stroke-width="4" stroke-linecap="round" stroke-linejoin="round"/>
<path d="M257.905 410.027V392.916" stroke="white" stroke-width="4" stroke-linecap="round" stroke-linejoin="round"/>
<path d="M53.1113 392.916H221.905" stroke="white" stroke-width="4" stroke-linecap="round" stroke-linejoin="round"/>
<path d="M257.905 392.916H270.049" stroke="white" stroke-width="4" stroke-linecap="round" stroke-linejoin="round"/>
</svg>
