<svg width="190" height="38" viewBox="0 0 190 38" fill="none" xmlns="http://www.w3.org/2000/svg">
<path d="M189.286 6.11173L186.435 29.6687L182.707 29.0382L184.041 5.75781L189.286 6.11173Z" fill="#FFC32D"/>
<path d="M186.4 31.5857C186.926 32.2686 187.22 33.1581 187.28 34.2577C187.22 35.2802 186.926 36.1347 186.4 36.8139C185.876 37.4968 185.228 37.8785 184.461 37.9553C183.651 37.8783 182.963 37.4828 182.399 36.7755C181.872 36.1207 181.61 35.2802 181.61 34.2577C181.61 33.1862 181.872 32.2932 182.399 31.5857C182.944 30.9308 183.632 30.6016 184.461 30.6016C185.209 30.6016 185.854 30.9308 186.4 31.5857Z" fill="#FFC32D"/>
<path d="M177.747 33.4742L173.152 34.7173C172.641 32.0456 172.217 29.6676 171.877 27.6017L167.568 27.8501L167.441 28.7993C167.228 30.3471 166.91 32.3221 166.486 34.7173L161.891 33.1904C161.912 33.103 162.253 31.5725 162.911 28.5961L168.208 5.0073C168.802 2.21979 169.464 0.826172 170.185 0.826172C170.781 0.826172 171.44 2.70324 172.164 6.45364L173.567 13.4928C175.29 22.3488 176.683 29.0093 177.747 33.4742ZM170.347 21.9355H171.049C171.005 21.4661 170.919 20.7448 170.792 19.7816L169.996 14.2381C169.866 13.3243 169.804 12.5958 169.804 12.0424L169.515 14.1504L168.433 21.8897C168.813 21.9181 169.453 21.9355 170.347 21.9355Z" fill="#FFC32D"/>
<path d="M153.236 1.20071L157.926 2.73102C157.289 5.90369 156.438 10.5683 155.374 16.7176C153.906 24.968 153.142 29.1985 153.077 29.4188C152.44 32.6792 151.557 34.4439 150.429 34.717C150.194 34.6643 149.875 34.4439 149.473 34.0588C148.706 33.1761 148.109 31.4254 147.686 28.799L143.155 1.8627L147.845 0.826172L148.612 7.20301C149.079 11.479 149.835 17.5859 150.877 25.5317C151.217 21.8094 151.406 19.8238 151.449 19.5716C152.129 12.2069 152.726 6.08566 153.236 1.20071Z" fill="#FFC32D"/>
<path d="M96.982 33.4741L92.3869 34.7104C91.8765 32.0384 91.4528 29.6676 91.1125 27.5945L86.8065 27.8432L86.6768 28.7993C86.4636 30.3402 86.145 32.3152 85.7212 34.7104L81.126 33.1836C81.1476 33.103 81.4879 31.5656 82.1465 28.5889L87.4437 5.00041C88.0375 2.21978 88.699 0.826172 89.4226 0.826172C90.0165 0.826172 90.6753 2.70323 91.3987 6.45363L92.8025 13.4853C94.5251 22.3416 95.9181 29.0024 96.982 33.4741ZM89.5817 21.9283H90.2838C90.2405 21.4589 90.1541 20.7448 90.0273 19.7747L89.2308 14.2312C89.1014 13.3174 89.0393 12.5889 89.0393 12.0355L88.7503 14.1507L87.6677 21.8828C88.0484 21.9109 88.688 21.9283 89.5817 21.9283Z" fill="#FFC32D"/>
<path d="M138.649 0.986933L138.457 23.0835C138.417 27.0896 138.427 30.9488 138.489 34.6714L132.747 34.5909C133.087 31.4744 133.387 25.7768 133.641 17.5019L134.183 0.826172L138.649 0.986933Z" fill="#FFC32D"/>
<path d="M80.3313 28.0112L79.9803 33.8837C77.5126 34.4686 75.3015 34.7382 73.3442 34.7104C70.4745 34.6577 68.4955 33.9714 67.4101 32.6442C66.3465 31.373 65.8145 29.7341 65.8145 27.7206C65.8145 25.1818 65.8684 22.6568 65.9738 20.1461L66.835 0.826172L71.7809 0.987221C71.546 3.19327 71.3975 5.41709 71.3354 7.64778L70.9196 22.9615C70.898 23.4587 70.8657 24.1731 70.8251 25.1151C70.8034 25.8573 70.7928 26.3826 70.7928 26.6838C70.7928 27.4578 70.963 28.0109 71.303 28.3402C71.6216 28.6691 72.3018 28.8339 73.344 28.8339C75.6636 28.813 77.9907 28.5365 80.3313 28.0112Z" fill="#FFC32D"/>
<path d="M124.576 1.20071L129.266 2.73102C128.628 5.90369 127.778 10.5683 126.714 16.7176C125.246 24.968 124.482 29.1985 124.417 29.4188C123.78 32.6792 122.897 34.4439 121.768 34.717C121.533 34.6643 121.215 34.4439 120.813 34.0588C120.046 33.1761 119.449 31.4254 119.025 28.799L114.495 1.8627L119.185 0.826172L119.951 7.20301C120.418 11.479 121.174 17.5859 122.216 25.5317C122.557 21.8094 122.746 19.8238 122.789 19.5716C123.469 12.2069 124.066 6.08566 124.576 1.20071Z" fill="#FFC32D"/>
<path d="M63.6134 27.2652L63.2948 33.8836C61.5941 34.4685 59.2965 34.7382 56.4049 34.7104C53.1057 34.6857 51.043 33.8314 50.2143 32.1469C49.3855 31.0158 48.9697 28.3263 48.9697 24.0787C48.9697 23.4729 49.1398 21.1161 49.4801 17.0015C49.8013 13.1144 49.9688 9.58094 49.9905 6.40828C50.0121 4.33864 49.9284 2.6298 49.7368 1.28147L63.4221 0.945312L63.2628 7.07342C58.8595 7.18203 56.138 7.37805 55.0959 7.64771L54.8422 14.5218C58.0739 14.4622 60.5523 14.3538 62.2748 14.1856V20.6046L54.5857 20.8112L54.521 22.9998C54.4777 24.4951 54.5749 25.7068 54.81 26.6453C55.0205 27.5523 55.5523 28.0111 56.4056 28.0111C58.5944 27.9827 60.9973 27.7343 63.6134 27.2652Z" fill="#FFC32D"/>
<path d="M47.3438 1.19434L47.055 6.9479C46.9066 9.95607 46.7473 17.1697 46.5771 28.5894C46.5341 30.7677 46.3854 32.4241 46.1317 33.5552C45.8969 34.3014 45.6214 34.6863 45.3001 34.7109C44.7898 34.6304 44.3552 34.0664 43.9933 33.0159L38.0267 16.8791L38.1239 34.7109L33.1455 34.3817C33.3373 30.1656 33.5074 25.501 33.6559 20.3951L34.007 9.01409C34.115 5.37918 34.2741 3.18346 34.4875 2.44094C34.763 1.52706 35.1247 1.07513 35.5701 1.07513C35.9103 1.07513 36.2207 1.23618 36.496 1.56517C36.7309 1.90132 37.1116 2.79773 37.6433 4.25811L42.6838 18.0764L42.4302 0.945312L47.3438 1.19434Z" fill="#FFC32D"/>
<path d="M31.645 33.4741L27.05 34.7104C26.5398 32.0384 26.1159 29.6676 25.7756 27.5945L21.4696 27.8432L21.3399 28.7993C21.1267 30.3402 20.8081 32.3152 20.3841 34.7104L15.7891 33.1836C15.8107 33.103 16.1507 31.5656 16.8096 28.5889L22.1065 5.00041C22.7004 2.21978 23.3619 0.826172 24.0855 0.826172C24.6793 0.826172 25.3382 2.70323 26.0617 6.45363L27.4656 13.4853C29.1882 22.3416 30.5812 29.0024 31.645 33.4741ZM24.2448 21.9283H24.9467C24.9036 21.4589 24.8172 20.7448 24.6902 19.7747L23.8937 14.2312C23.7642 13.3174 23.7019 12.5889 23.7019 12.0355L23.4129 14.1507L22.3303 21.8828C22.7115 21.9109 23.3513 21.9283 24.2448 21.9283Z" fill="#FFC32D"/>
<path d="M14.5169 1.19413L14.2604 8.97864C14.155 12.421 14.0794 16.7107 14.0363 21.8481C14.0147 26.1728 13.3667 29.4054 12.0925 31.5272C10.8372 33.6493 9.18766 34.7104 7.14643 34.7104C5.01903 34.7104 3.32886 33.7473 2.07349 31.8178C0.756048 29.8043 0.0649555 27.1813 0 23.9559L4.91363 23.5392C4.97572 25.3042 5.24305 26.6454 5.70989 27.5524C6.11487 28.3264 6.59276 28.7571 7.1462 28.8339C7.61326 28.8339 8.05072 28.3018 8.45305 27.2231C8.79329 26.3407 8.99567 24.5511 9.06062 21.8478C9.23075 15.667 9.31713 12.3261 9.31713 11.8292C9.31713 6.59033 9.3253 2.92046 9.34673 0.826172L14.5169 1.19413Z" fill="#FFC32D"/>
</svg>
